<svg width="40" height="40" viewBox="0 0 40 40" fill="none" xmlns="http://www.w3.org/2000/svg">
<path d="M35 0H5C2.23858 0 0 2.23858 0 5V35C0 37.7614 2.23858 40 5 40H35C37.7614 40 40 37.7614 40 35V5C40 2.23858 37.7614 0 35 0Z" fill="#68A75D"/>
<path d="M21.4938 30.7086H18.0708C17.499 30.7086 17.0339 30.2435 17.0339 29.6717V21.9509H15.0369C14.4651 21.9509 14 21.4856 14 20.914V17.6057C14 17.0339 14.4651 16.5688 15.0369 16.5688H17.0339V14.9121C17.0339 13.2694 17.5497 11.8718 18.5255 10.8707C19.5055 9.86496 20.8753 9.3335 22.4865 9.3335L25.097 9.33776C25.6678 9.3387 26.1321 9.80383 26.1321 10.3746V13.4464C26.1321 14.0181 25.6671 14.4832 25.0955 14.4832L23.3379 14.4838C22.8019 14.4838 22.6653 14.5913 22.6362 14.6243C22.5881 14.6789 22.5308 14.8334 22.5308 15.2598V16.5686H24.9635C25.1466 16.5686 25.3241 16.6138 25.4765 16.699C25.8055 16.8828 26.0099 17.2303 26.0099 17.6058L26.0087 20.9142C26.0087 21.4856 25.5435 21.9508 24.9718 21.9508H22.5308V29.6717C22.5308 30.2435 22.0655 30.7086 21.4938 30.7086ZM18.287 29.4555H21.2775V21.3899C21.2775 21.0082 21.5882 20.6976 21.9698 20.6976H24.7555L24.7567 17.8219H21.9697C21.5881 17.8219 21.2775 17.5114 21.2775 17.1296V15.2598C21.2775 14.7702 21.3273 14.2135 21.6969 13.795C22.1433 13.2892 22.847 13.2308 23.3376 13.2308L24.879 13.2301V10.5905L22.4855 10.5866C19.8961 10.5866 18.287 12.2441 18.287 14.9121V17.1296C18.287 17.5112 17.9765 17.8219 17.5949 17.8219H15.2531V20.6976H17.5949C17.9765 20.6976 18.287 21.0082 18.287 21.3899V29.4555ZM25.0946 10.5908H25.0947H25.0946Z" fill="white"/>
</svg>
