<svg width="40" height="40" viewBox="0 0 40 40" fill="none" xmlns="http://www.w3.org/2000/svg">
<path d="M40 0H0V40H40V0Z" fill="#68A75D"/>
<path d="M24.5862 10H15.4138C12.4286 10 10 12.4286 10 15.4138V24.5863C10 27.5714 12.4286 30 15.4138 30H24.5863C27.5714 30 30 27.5714 30 24.5863V15.4138C30 12.4286 27.5714 10 24.5862 10ZM28.8275 24.5863C28.8275 26.9249 26.9249 28.8275 24.5862 28.8275H15.4138C13.0751 28.8275 11.1725 26.9249 11.1725 24.5863V15.4138C11.1725 13.0751 13.0751 11.1725 15.4138 11.1725H24.5863C26.9249 11.1725 28.8275 13.0751 28.8275 15.4138V24.5863Z" fill="white"/>
<path d="M20.0001 14.5312C16.9846 14.5312 14.5315 16.9844 14.5315 19.9998C14.5315 23.0153 16.9846 25.4684 20.0001 25.4684C23.0156 25.4684 25.4687 23.0153 25.4687 19.9998C25.4687 16.9844 23.0156 14.5312 20.0001 14.5312ZM20.0001 24.296C17.6313 24.296 15.704 22.3688 15.704 19.9998C15.704 17.631 17.6313 15.7037 20.0001 15.7037C22.369 15.7037 24.2962 17.631 24.2962 19.9998C24.2962 22.3688 22.369 24.296 20.0001 24.296Z" fill="white"/>
<path d="M25.5993 12.5894C24.7082 12.5894 23.9834 13.3143 23.9834 14.2053C23.9834 15.0964 24.7082 15.8213 25.5993 15.8213C26.4904 15.8213 27.2153 15.0964 27.2153 14.2053C27.2153 13.3142 26.4904 12.5894 25.5993 12.5894ZM25.5993 14.6487C25.3549 14.6487 25.1559 14.4497 25.1559 14.2053C25.1559 13.9607 25.3549 13.7618 25.5993 13.7618C25.8439 13.7618 26.0429 13.9607 26.0429 14.2053C26.0429 14.4497 25.8439 14.6487 25.5993 14.6487Z" fill="white"/>
</svg>
