<svg width="40" height="40" viewBox="0 0 40 40" fill="none" xmlns="http://www.w3.org/2000/svg">
<g clip-path="url(#clip0_1217_14)">
<path d="M0 34.1466C0 37.3795 2.60737 40 5.82357 40H34.1764C37.3927 40 40 37.3795 40 34.1466V5.85343C40 2.62064 37.3927 0 34.1764 0H5.82357C2.60727 0 0 2.62064 0 5.85343V34.1466Z" fill="#68A75D" fill-opacity="0.63"/>
<path d="M0.205429 39.7943C-2.97779 39.7943 0.205429 42.9938 0.205429 39.7943H39.7946C39.7946 42.9938 42.9778 39.7943 39.7946 39.7943L39.7946 0.205272C42.9777 0.205272 39.7946 -2.99428 39.7946 0.205272L0.205429 0.20524C0.205429 -6.79344 -5.55835 0.20524 0.205429 0.20524V39.7943Z" fill="#68A75D"/>
<path d="M20.0223 5.97803C23.9866 5.97803 27.2002 9.20824 27.2002 13.1928C27.2002 17.1774 23.9866 20.4079 20.0223 20.4079C16.0579 20.4079 12.8443 17.1774 12.8443 13.1928C12.8443 9.20824 16.0579 5.97803 20.0223 5.97803ZM20.0223 16.1754C21.661 16.1754 22.9895 14.84 22.9895 13.1929C22.9895 11.5458 21.661 10.2105 20.0223 10.2105C18.3836 10.2105 17.0551 11.5458 17.0551 13.1929C17.0551 14.84 18.3836 16.1754 20.0223 16.1754Z" fill="white"/>
<path d="M17.4882 26.1489C14.6145 25.5605 12.8925 24.1926 12.8014 24.1192C11.9605 23.4414 11.8255 22.2068 12.4998 21.3615C13.1741 20.5163 14.4023 20.3805 15.2434 21.0582C15.2612 21.0727 17.0978 22.4889 20.1198 22.4909C23.1416 22.4889 25.0171 21.0727 25.0349 21.0582C25.876 20.3805 27.1042 20.5163 27.7785 21.3615C28.4528 22.2068 28.3177 23.4414 27.4769 24.1192C27.3845 24.1937 25.5914 25.5971 22.6373 26.1717L26.7544 30.4966C27.5027 31.2765 27.4802 32.5184 26.7042 33.2704C26.3255 33.6375 25.8373 33.8199 25.3496 33.8199C24.8383 33.8199 24.3274 33.6191 23.9445 33.2198L20.1197 29.1245L15.9085 33.2464C15.1455 34.012 13.91 34.0108 13.1484 33.2442C12.3868 32.4775 12.3878 31.2354 13.1506 30.4699L17.4882 26.1489Z" fill="white"/>
<path d="M20.119 22.4907C20.1262 22.4907 20.112 22.4908 20.119 22.491C20.126 22.4908 20.1118 22.4907 20.119 22.4907Z" fill="white"/>
</g>
<defs>
<clipPath id="clip0_1217_14">
<rect width="40" height="40" rx="5" transform="matrix(-1 0 0 1 40 0)" fill="white"/>
</clipPath>
</defs>
</svg>
