<svg width="40" height="40" viewBox="0 0 40 40" fill="none" xmlns="http://www.w3.org/2000/svg">
<path d="M40 0H0V40H40V0Z" fill="#68A75D"/>
<path d="M23.2836 19.0411L18.5706 16.4624C18.2996 16.3141 17.9792 16.3197 17.7136 16.477C17.4478 16.6346 17.2893 16.9129 17.2893 17.2218V22.3351C17.2893 22.6425 17.4469 22.9203 17.7109 23.0781C17.8487 23.1604 18.0016 23.2018 18.1547 23.2018C18.295 23.2018 18.4356 23.1671 18.565 23.0975L23.2782 20.5631C23.558 20.4125 23.7326 20.1217 23.734 19.8039C23.7351 19.4859 23.5626 19.1938 23.2836 19.0411ZM18.5395 21.6919V17.8703L22.0619 19.7977L18.5395 21.6919Z" fill="white"/>
<path d="M30.5096 15.7301L30.5087 15.7204C30.4906 15.5486 30.3107 14.0213 29.5682 13.2444C28.71 12.3307 27.737 12.2197 27.2691 12.1665C27.2303 12.1621 27.1949 12.158 27.1631 12.1538L27.1259 12.1499C24.3055 11.9448 20.0463 11.9168 20.0037 11.9166L19.9999 11.9165L19.9961 11.9166C19.9535 11.9168 15.6943 11.9448 12.8485 12.1499L12.8109 12.1538C12.7807 12.1579 12.7473 12.1616 12.711 12.1658C12.2485 12.2192 11.2859 12.3304 10.4252 13.2772C9.71799 14.0457 9.51359 15.5404 9.49259 15.7083L9.49019 15.7301C9.48379 15.8016 9.33325 17.5026 9.33325 19.2102V20.8066C9.33325 22.5143 9.48379 24.2153 9.49019 24.2869L9.49132 24.2976C9.50939 24.4666 9.68905 25.9659 10.4281 26.7431C11.2351 27.6262 12.2555 27.7431 12.8043 27.8059C12.891 27.8158 12.9657 27.8243 13.0167 27.8333L13.066 27.8401C14.6944 27.995 19.8 28.0714 20.0165 28.0745L20.023 28.0746L20.0295 28.0745C20.0721 28.0743 24.3313 28.0463 27.1515 27.8412L27.1888 27.8374C27.2245 27.8326 27.2645 27.8284 27.3085 27.8238C27.7684 27.775 28.7258 27.6736 29.5745 26.7397C30.2817 25.971 30.4863 24.4764 30.5072 24.3086L30.5096 24.2867C30.5159 24.2151 30.6667 22.5143 30.6667 20.8066V19.2102C30.6665 17.5026 30.5159 15.8018 30.5096 15.7301ZM29.4163 20.8066C29.4163 22.3872 29.2783 24.0149 29.2653 24.1644C29.2123 24.576 28.9966 25.5216 28.6521 25.8961C28.1208 26.4806 27.5751 26.5385 27.1766 26.5807C27.1285 26.5857 27.0839 26.5906 27.0435 26.5956C24.3156 26.7929 20.2172 26.8232 20.0284 26.8243C19.8166 26.8212 14.7857 26.7442 13.2069 26.5976C13.1261 26.5844 13.0387 26.5743 12.9465 26.5639C12.4793 26.5104 11.8396 26.4371 11.3477 25.8961L11.3362 25.8837C10.9977 25.531 10.7882 24.6468 10.7349 24.1692C10.725 24.0562 10.5834 22.4093 10.5834 20.8066V19.2102C10.5834 17.6315 10.7211 16.0055 10.7345 15.853C10.7978 15.3682 11.0175 14.4798 11.3477 14.1208C11.8953 13.5186 12.4726 13.4518 12.8544 13.4077C12.8909 13.4035 12.9249 13.3996 12.9563 13.3955C15.7239 13.1972 19.8518 13.1678 19.9999 13.1666C20.148 13.1676 24.2745 13.1972 27.0175 13.3955C27.0511 13.3997 27.0879 13.404 27.1275 13.4085C27.5202 13.4533 28.1138 13.521 28.6585 14.102L28.6636 14.1074C29.0021 14.4601 29.2116 15.3598 29.2648 15.847C29.2743 15.9536 29.4163 17.6042 29.4163 19.2102V20.8066Z" fill="white"/>
</svg>
